<?xml version="1.0" encoding="UTF-8"?>
<svg id="Camada_2" data-name="Camada 2" xmlns="http://www.w3.org/2000/svg" viewBox="0 0 483.39 519.17">
  <defs>
    <style>
      .cls-1 {
        fill: #fff;
      }
    </style>
  </defs>
  <g id="Camada_1-2" data-name="Camada 1">
    <g>
      <path class="cls-1" d="M483.21,168.26c.68-8.45-.32-9.98-6.81-10.56-10.78-.96-12.33.1-13.13,8.94-1.63,17.98-3.14,35.97-5.04,53.92-.14,1.3-.52,2.57-1,3.83-1.25,3.27-5.14,4.67-8.16,2.89-1.14-.68-2.2-1.43-3.07-2.36-24.09-25.78-47.94-51.76-71.93-77.63-5.56-6-8.27-5.28-17.56,2.89-5.22,4.58-3.01,8.17.54,12.13,35.4,39.49,70.73,79.05,106.26,118.43.91,1.01,2.16,1.7,3.53,2.3,2.7,1.18,5.87.08,7.24-2.53.59-1.12,1.04-2.25,1.13-3.4,2.83-36.27,5.38-72.56,8.01-108.84Z"/>
      <path class="cls-1" d="M279.33,423.33c-.08-.31-.13-.62-.16-.93-1.14-13.85-2.08-14.33-15.39-11.58-50.04,10.33-100.1,20.53-150.1,31.04-1.67.35-3.22,1.22-4.75,2.24-2.68,1.79-3.34,5.44-1.45,8.05.91,1.26,1.9,2.4,3.1,3.24,29.27,20.23,58.76,40.14,88.07,60.33,5.27,3.63,9.49,5.95,13.96-1.11,5.44-8.6,5.46-10.03-2.49-15.65-.23-.16-.46-.32-.7-.48-14.32-10.07-28.72-20.03-42.9-30.3-.97-.71-1.84-1.56-2.65-2.49-2.36-2.71-1.58-6.93,1.58-8.64,1.29-.7,2.6-1.35,3.95-1.89,2.85-1.13,6.04-1.4,9.07-2.08,30.85-6.9,61.68-13.84,92.54-20.68,5.37-1.19,9.92-2.71,8.29-9.05Z"/>
      <path class="cls-1" d="M205.5,93.8c.05.29.08.58.09.87.32,12.96,2.27,15.14,11.32,13.48,51.66-9.43,103.33-18.82,154.94-28.48,1.53-.29,2.96-1.08,4.36-2.03,2.54-1.71,3.27-5.13,1.64-7.72-.9-1.43-1.88-2.74-3.15-3.67-28.76-20.95-57.72-41.65-86.63-62.4-4.46-3.2-8.65-6.82-13.43.1-6.43,9.3-6.62,10.44,1.38,16.38,14.75,10.94,29.61,21.72,44.26,32.8.62.47,1.16,1.03,1.67,1.64,2.2,2.69,1.49,6.7-1.5,8.47-.99.58-2,1.13-3.04,1.59-2.01.89-4.4.95-6.61,1.39-32.66,6.55-65.31,13.19-97.99,19.59-5.2,1.02-8.25,3.01-7.31,7.97Z"/>
      <path class="cls-1" d="M114.14,91.14c.33,1.01.36,2.1.09,3.14-.74,2.84-1.41,5.7-2.32,8.49-10.42,31.91-20.92,63.79-31.34,95.7-2.86,8.77-1.38,10.6,9.66,14.79,7.1,2.69,9.62-.88,11.62-6.77,16.94-49.96,34.05-99.87,50.89-149.87.39-1.17.43-2.46.32-3.8-.24-3.08-2.93-5.38-6.01-5.19-1.44.09-2.82.3-4.04.86-32.54,14.98-64.93,30.29-97.45,45.32-6.84,3.16-9.45,6.43-5.35,14.22,3.54,6.74,7.13,7.79,13.35,4.55,4.24-2.21,8.74-3.93,13.11-5.91,12.86-5.8,25.7-11.63,38.56-17.43,3.84-1.73,7.41-2.67,8.91,1.9Z"/>
      <path class="cls-1" d="M376.43,428.31c-1.67.73-3.6.64-5.14-.32-2.9-1.81-1.96-5.07-.84-8.47,11.13-33.8,22.2-67.63,33.35-101.42,2.81-8.52,1.59-10.03-9.75-14.7-7.23-2.98-9.42.6-11.46,6.56-17.07,49.97-34.35,99.87-51.4,149.86-.35,1.03-.46,2.14-.47,3.29-.03,3.03,2.35,5.55,5.38,5.69,1.81.08,3.55.02,5.02-.65,32.87-15.03,65.58-30.43,98.35-45.67,5.72-2.66,8.34-5.88,5.01-12.55-3.11-6.23-6.14-9.68-13.63-6.08-13.49,6.48-27.24,12.42-40.9,18.56-4.52,2.03-9.07,3.99-13.52,5.92Z"/>
      <path class="cls-1" d="M.13,350.02c-.74,5.03,1.77,7.9,8.52,8.15,6.29.23,10.98.34,11.64-7.96,1.44-18,3.42-35.97,5.53-53.91.18-1.56.65-3.08,1.23-4.59,1.24-3.26,5.1-4.66,8.11-2.91,1.35.79,2.61,1.66,3.61,2.76,23.37,25.68,46.49,51.59,69.72,77.39,6.12,6.8,8.6,6.31,18.22-1.81,5.87-4.96,2.69-8.74-.84-12.79-11.69-13.41-23.39-26.82-35.07-40.24-22.98-26.42-45.9-52.9-69.02-79.2-1.8-2.04-5.32-4.25-7.48-3.78-1.85.4-3.89,4.43-4.14,7.02-3.48,36.82-6.67,73.66-10.05,111.87Z"/>
    </g>
  </g>
</svg>